<?xml version="1.0" ?><svg id="Bold" viewBox="0 0 24 24" xmlns="http://www.w3.org/2000/svg"><title/><path d="M23.689,8.513,19.246,2.886a2.252,2.252,0,0,0-3.474.2l-1.67,2.3a4.314,4.314,0,0,0-4.2,0l-1.671-2.3a2.251,2.251,0,0,0-3.494-.179L.311,8.513a1.25,1.25,0,0,0,1.878,1.651l4-5.092a.25.25,0,0,1,.4.007L8.005,7.032a.247.247,0,0,1,.021.26c-.057.112-.108.227-.156.343a.25.25,0,0,0,.189.341,3.259,3.259,0,0,1,.213,6.384A.252.252,0,0,0,8.1,14.7a4.248,4.248,0,0,0,.339.64.251.251,0,0,1-.007.28,4.245,4.245,0,0,0-.888,3.111,4.589,4.589,0,0,0,1.9,2.941,1,1,0,0,0,1.38-.274,1,1,0,0,0-.264-1.387,2.642,2.642,0,0,1-1.04-1.58A2.172,2.172,0,0,1,9.9,17.011a.25.25,0,0,1,.322-.094,3.982,3.982,0,0,0,3.564,0,.25.25,0,0,1,.322.094,2.172,2.172,0,0,1,.375,1.419,2.642,2.642,0,0,1-1.039,1.58,1,1,0,0,0,1.115,1.661,4.589,4.589,0,0,0,1.9-2.941,4.245,4.245,0,0,0-.888-3.111.251.251,0,0,1-.007-.28,4.145,4.145,0,0,0,.338-.64.25.25,0,0,0-.008-.209.253.253,0,0,0-.164-.13,3.259,3.259,0,0,1,.222-6.386.25.25,0,0,0,.189-.341c-.048-.118-.1-.235-.159-.348A.251.251,0,0,1,16,7.024L17.415,5.08a.251.251,0,0,1,.4-.008l4,5.092a1.25,1.25,0,0,0,1.878-1.651Z"/><circle cx="7.5" cy="11.188" r="1.776"/><circle cx="16.5" cy="11.188" r="1.776"/></svg>