<svg width="192" height="192" fill="none" xmlns="http://www.w3.org/2000/svg">
  <g transform="translate(19.2,19.2) scale(0.8)">
    <g viewBox="0 0 192 192">
      <path fill="#fff" fill-rule="evenodd" clip-rule="evenodd" d="M192 96l-.003 4.456-.01 2.617-.016 2.195-.022 1.958-.029 1.799-.035 1.682-.042 1.59-.048 1.514-.054 1.451-.061 1.397-.067 1.351-.074 1.308-.08 1.271-.086 1.238-.093 1.207-.099 1.179-.106 1.153-.112 1.128-.118 1.106-.125 1.086-.131 1.065-.138 1.046-.144 1.029-.15 1.012-.157.995-.163.98-.17.966-.176.951-.182.938-.189.924-.196.912-.201.899-.208.887-.215.876-.221.864-.227.854-.234.843-.24.832-.246.822-.253.812-.259.803-.266.793-.272.783-.279.774-.285.765-.292.756-.298.748-.304.738-.311.731-.317.721-.324.714-.33.705-.337.697-.343.69-.349.681-.356.673-.363.666-.369.658-.375.65-.382.643-.389.635-.395.628-.401.621-.408.613-.415.606-.421.599-.428.591-.434.585-.441.577-.448.571-.454.563-.461.556-.467.549-.474.543-.481.535-.487.529-.495.522-.501.515-.507.508-.515.502-.521.494-.528.488-.535.482-.542.474-.549.468-.556.462-.562.454-.57.448-.577.442-.584.435-.591.428-.598.422-.605.415-.613.408-.62.402-.627.396-.635.389-.642.383-.65.376-.657.369-.665.363-.673.357-.681.35-.688.343-.697.337-.705.331-.712.324-.721.318-.73.311-.738.305-.747.299-.755.292-.765.285-.773.279-.783.273-.792.267-.801.259-.812.254-.821.247-.831.241-.842.234-.853.228-.864.221-.874.215-.887.208-.898.203-.911.195-.923.19-.937.183-.95.176-.964.17-.979.164-.994.157-1.011.151-1.027.145-1.045.138-1.064.132-1.083.125-1.105.119-1.127.112-1.15.106-1.177.1-1.205.093-1.235.087-1.268.081-1.306.074-1.346.068-1.394.061-1.446.055-1.509.048-1.583.043-1.674.035-1.788.03-1.944.022-2.172.017-2.57.01-3.864.004-5.041-.003-2.668-.009-2.22-.015-1.973-.022-1.81-.029-1.69-.034-1.596-.041-1.52-.048-1.456-.054-1.401-.06-1.354-.067-1.312-.073-1.274-.079-1.24-.086-1.21-.093-1.18-.098-1.155-.105-1.13-.112-1.108-.118-1.087-.124-1.067-.131-1.048-.137-1.03-.143-1.013-.15-.997-.157-.981-.162-.967-.169-.952-.176-.939-.182-.925-.188-.913-.195-.9-.201-.888-.207-.877-.214-.865-.221-.855-.227-.843-.233-.834-.239-.822-.246-.813-.253-.803-.259-.794-.265-.784-.272-.775-.278-.766-.284-.757-.291-.748-.298-.74-.304-.73-.31-.722-.317-.715-.323-.706-.329-.697-.337-.69-.342-.682-.349-.674-.356-.666-.362-.66-.368-.65-.375-.643-.382-.636-.388-.629-.394-.621-.401-.614-.408-.606-.414-.6-.421-.592-.427-.585-.434-.578-.44-.57-.447-.564-.454-.557-.46-.55-.467-.543-.473-.536-.481-.53-.487-.522-.493-.515-.501-.51-.507-.501-.514-.495-.52-.489-.528-.482-.534-.475-.542-.468-.548-.462-.555-.456-.562-.448-.569-.442-.577-.436-.583-.428-.59-.422-.598-.416-.605-.41-.612-.402-.619-.396-.627-.39-.634-.383-.642-.376-.649-.37-.657-.364-.664-.357-.672-.35-.68-.344-.688-.338-.696-.331-.704-.325-.712-.318-.721-.312-.729-.306-.737-.298-.746-.293-.755-.286-.763-.28-.773-.273-.782-.267-.791-.26-.801-.254-.811-.248-.82-.24-.831-.236-.841-.228-.852-.222-.863-.215-.874-.21-.885-.202-.897-.196-.91-.19-.922-.184-.936-.177-.949-.17-.963-.164-.978-.158-.993-.152-1.009-.145-1.026-.138-1.043-.133-1.062-.125-1.082-.12-1.103-.113-1.125-.106-1.149-.1-1.174-.095-1.203-.087-1.232-.081-1.266-.075-1.302-.068-1.344-.062-1.389-.055-1.442-.05-1.504-.042-1.576-.036-1.666-.03-1.778-.023-1.929-.017-2.15-.01-2.526L0 97.309l.002-5.278.009-2.724.015-2.244.021-1.99.028-1.82.034-1.7.04-1.602.048-1.525.053-1.461.06-1.406.066-1.357.073-1.315.079-1.277.085-1.242.092-1.212.098-1.183.104-1.157.111-1.132.118-1.11.124-1.088.13-1.069.136-1.05.143-1.03.15-1.015.156-.998.162-.983.168-.967.175-.954.182-.94.188-.926.194-.914.2-.9.207-.89.214-.878.22-.866.226-.855.233-.845.239-.834.245-.823.252-.814.259-.804.264-.794.272-.785.277-.776.284-.766.29-.758.298-.749.303-.74.31-.731.316-.723.323-.715.329-.707.335-.698.342-.69.349-.683.355-.675.361-.667.368-.659.375-.652.38-.644.388-.636.394-.63.4-.621.408-.614.413-.608.42-.6.427-.592.434-.586.44-.578.446-.571.453-.565.46-.557.466-.55.473-.544.48-.537.486-.53.493-.523.5-.516.507-.509.513-.503.52-.495.527-.49.534-.482.541-.476.548-.468.554-.463.562-.456.569-.449.575-.442.583-.436.59-.43.597-.422.604-.416.612-.41.618-.403.627-.397.633-.39.641-.383.649-.377.656-.371.664-.364.671-.358.68-.35.687-.345.695-.339.704-.331.711-.325.72-.32.728-.312.737-.306.745-.299.754-.293.763-.287.772-.28.781-.274.79-.267.8-.26.81-.255.82-.248.83-.242.84-.235.851-.229.862-.222.873-.216.885-.21.896-.203.909-.197.921-.19.934-.184.948-.178.962-.171.977-.165.992-.158 1.008-.152 1.024-.146 1.042-.139 1.06-.132 1.081-.127 1.101-.12 1.123-.113L67.51.844l1.173-.101 1.2-.094 1.23-.088 1.263-.082 1.299-.075 1.34-.069L76.4.273l1.438-.056 1.498-.05 1.57-.043 1.658-.036 1.768-.03 1.916-.025 2.127-.017L90.86.005 94.284 0l5.43.002 2.784.008 2.271.014 2.006.021 1.833.027 1.707.034 1.609.04 1.531.047 1.466.052 1.409.06 1.361.065 1.318.072 1.28.079 1.245.085 1.214.091 1.186.098 1.159.104 1.134.11 1.111.117 1.09.123 1.07.13 1.051.136 1.033.143 1.016.149.999.155.984.162.969.168.954.174.941.181.927.187.915.194.902.2.89.207.879.213.867.219.856.226.845.232.835.238.825.245.814.252.805.258.795.264.786.27.776.278.767.283.759.29.749.297.741.302.732.31.724.315.715.323.708.328.699.335.691.342.683.348.675.354.668.361.66.368.652.374.644.38.637.387.63.393.622.4.615.407.608.413.601.42.593.426.586.433.579.439.572.446.565.453.558.459.551.466.544.472.537.48.53.485.524.493.517.5.509.505.504.513.496.52.489.526.483.534.477.54.469.547.463.554.456.561.45.568.443.575.436.582.43.59.424.596.416.604.41.61.404.619.397.625.391.633.384.64.377.649.371.655.365.663.358.671.352.68.345.686.339.695.332.702.326.711.319.72.313.727.306.736.3.744.294.754.287.762.28.771.275.78.268.79.261.8.255.809.249.819.242.829.235.84.23.85.223.86.216.872.21.884.204.895.197.908.191.92.185.933.178.947.171.961.166.975.158.991.153 1.007.146 1.023.14 1.04.133 1.06.127 1.078.12 1.1.114 1.121.108 1.145.101 1.17.095 1.198.088 1.228.082 1.26.076 1.296.069 1.336.063 1.382.056 1.433.051 1.493.043 1.564.037 1.65.031 1.759.025 1.901.018 2.108.011 2.447.006 3.28V96z" />
    </g>
    <g viewBox="0 0 24 24" fill="#333" transform="scale(8)">
      <g transform="translate(1.5,1.5) scale(0.875)">
        <path d="M23.689,8.513,19.246,2.886a2.252,2.252,0,0,0-3.474.2l-1.67,2.3a4.314,4.314,0,0,0-4.2,0l-1.671-2.3a2.251,2.251,0,0,0-3.494-.179L.311,8.513a1.25,1.25,0,0,0,1.878,1.651l4-5.092a.25.25,0,0,1,.4.007L8.005,7.032a.247.247,0,0,1,.021.26c-.057.112-.108.227-.156.343a.25.25,0,0,0,.189.341,3.259,3.259,0,0,1,.213,6.384A.252.252,0,0,0,8.1,14.7a4.248,4.248,0,0,0,.339.64.251.251,0,0,1-.007.28,4.245,4.245,0,0,0-.888,3.111,4.589,4.589,0,0,0,1.9,2.941,1,1,0,0,0,1.38-.274,1,1,0,0,0-.264-1.387,2.642,2.642,0,0,1-1.04-1.58A2.172,2.172,0,0,1,9.9,17.011a.25.25,0,0,1,.322-.094,3.982,3.982,0,0,0,3.564,0,.25.25,0,0,1,.322.094,2.172,2.172,0,0,1,.375,1.419,2.642,2.642,0,0,1-1.039,1.58,1,1,0,0,0,1.115,1.661,4.589,4.589,0,0,0,1.9-2.941,4.245,4.245,0,0,0-.888-3.111.251.251,0,0,1-.007-.28,4.145,4.145,0,0,0,.338-.64.25.25,0,0,0-.008-.209.253.253,0,0,0-.164-.13,3.259,3.259,0,0,1,.222-6.386.25.25,0,0,0,.189-.341c-.048-.118-.1-.235-.159-.348A.251.251,0,0,1,16,7.024L17.415,5.08a.251.251,0,0,1,.4-.008l4,5.092a1.25,1.25,0,0,0,1.878-1.651Z"/><circle cx="7.5" cy="11.188" r="1.776"/><circle cx="16.5" cy="11.188" r="1.776"/>
      </g>
    </g>
  </g>
</svg>